<?xml version="1.0" encoding="utf-8"?>
<!-- Generator: Adobe Illustrator 27.0.0, SVG Export Plug-In . SVG Version: 6.00 Build 0)  -->
<svg version="1.1" id="Calque_1" xmlns="http://www.w3.org/2000/svg" xmlns:xlink="http://www.w3.org/1999/xlink" x="0px" y="0px"
	 viewBox="0 0 800 800" style="enable-background:new 0 0 800 800;" xml:space="preserve">
<style type="text/css">
	.st0{fill:#FE705A;}
</style>
<path class="st0" d="M450.9,3.27C231.77-24.73,31.37,129.95,3.27,349.1c-28,219.12,126.68,419.52,345.83,447.62
	c219.12,28,419.53-126.67,447.5-345.83C824.72,231.77,670.07,31.37,450.9,3.27L450.9,3.27z M533.2,252.87
	c-7.42,0-14.47,3-19.67,8.32L365.1,409.5l-10.27-10.17l-21.38-21.48c146.22-145.83,172.67-147.28,199.72-125L533.2,252.87z
	 M371.23,414.83l147.9-148.02c8.2-8.6,21.88-8.48,30.1,0.12c8.08,8.73,7.28,22.4-1.82,29.92l-156.62,137.5L371.23,414.83z
	 M382.17,438.02l-36.73,7.92c-0.77,0.12-1.8-0.27-2.2-1.18c-0.4-0.8-0.27-1.7,0.4-2.38l21.48-21.47L382.17,438.02z M288.67,422.67
	l39.2-39.08l29.3,29.3l-66.02,14.17c-1.17,0.27-2.33-0.23-2.88-1.3C287.65,424.75,287.9,423.45,288.67,422.67z M167.2,624.6
	c-1.43-0.12-2.5-1.42-2.38-2.72c0.12-0.62,0.4-1.18,0.8-1.58h0.12l31.5-31.5l40.77,40.78L167.2,624.6z M248.02,582.67
	c-3.1,1.7-4.68,5.22-3.9,8.6l6.77,28.8c1.08,4.18-4.03,7-7.02,3.9h-0.13l-40.88-40.9l125.4-125.28l60.67-13.12l29.02,29.17
	c-41.8,36.7-98.97,73.3-169.92,108.83L248.02,582.67z M423.97,468.5l-28-28L552.6,303c1.42-1.3,2.73-2.73,3.9-4.17
	C551.7,343.62,488.92,406.9,423.97,468.5z M545.98,253.12h-0.12c-54.58-54.82,22.52-139.07,81.9-89.6l-53.62,53.8
	c-1.58,1.53-1.58,4.18,0,5.7l41.52,41.57C592.35,276.17,564.35,271.5,545.98,253.12L545.98,253.12z M631.78,253.12
	c-2.73,2.73-5.73,5.2-8.98,7.28l-40.22-40.23L633.6,169C655.73,193.1,654.83,230.07,631.78,253.12L631.78,253.12z M628.5,201.7
	c-1.67,1.18-2.33,3.22-1.8,5.2c2.48,4.92,1.8,10.8-1.7,14.97c-1.7,2.1-1.3,4.98,0.78,6.63c0.8,0.52,1.7,0.92,2.72,0.92
	c1.42,0,2.78-0.52,3.53-1.57c5.88-7.03,7.03-16.93,3-25.13C633.45,200.65,630.6,200.12,628.5,201.7z"/>
</svg>
