<svg xmlns="http://www.w3.org/2000/svg" width="616" height="616"><path fill="#EEC093" d="m307.625-.313 3.203.006C326.425-.262 341.618.209 357 3l3.04.52c59.002 10.217 113.867 36.88 157.42 78.041a255.2 255.2 0 0 0 4.552 4.138c4.727 4.211 9.197 8.423 13.27 13.274 1.882 2.22 3.86 4.334 5.843 6.465C568.956 136.35 589.28 174.606 602 214c.29.893.58 1.787.877 2.708 24.852 78.153 14.778 163.945-22.344 236.414C572.881 467.486 564.063 481.21 554 494l-1.558 1.986C537.81 514.534 521.735 532.511 503 547a1150.11 1150.11 0 0 0-3.258 2.633C491.492 556.286 482.95 562.326 474 568l-1.783 1.131C423.244 599.928 366.824 616.205 309 616.25l-2.37.002c-32.696-.044-64.524-5.173-95.63-15.252l-2.714-.87C185.479 592.704 163.215 581.897 143 569l-3.266-2.074c-14.57-9.508-28.082-20.392-40.812-32.227-2.71-2.504-5.465-4.948-8.234-7.386a100.333 100.333 0 0 1-9.864-10.18c-2.097-2.452-4.304-4.781-6.511-7.133C35.953 467.81 12.532 412.721 3 357l-.5-2.759C-2.897 323.536-2.517 288.654 3 258l.634-3.56c2.621-14.313 5.715-28.394 10.556-42.128a436.106 436.106 0 0 0 2.474-7.34C31.091 162.35 55.894 124.306 87 92l1.605-1.672C95.682 83 102.985 76.308 111 70c1.13-.93 2.26-1.862 3.387-2.797C157.049 32.041 210.269 9.293 265 2l1.952-.261c13.563-1.759 27.008-2.1 40.673-2.051Z"/><path fill="#A9C400" d="m307.625-.313 3.203.006C326.425-.262 341.618.209 357 3l3.04.52c59.002 10.217 113.867 36.88 157.42 78.041a255.2 255.2 0 0 0 4.552 4.138c4.727 4.211 9.197 8.423 13.27 13.274 1.882 2.22 3.86 4.334 5.843 6.465C568.956 136.35 589.28 174.606 602 214c.29.893.58 1.787.877 2.708 24.852 78.153 14.778 163.945-22.344 236.414C572.881 467.486 564.063 481.21 554 494l-1.558 1.986C537.81 514.534 521.735 532.511 503 547a1150.11 1150.11 0 0 0-3.258 2.633C491.492 556.286 482.95 562.326 474 568l-1.783 1.131C423.244 599.928 366.824 616.205 309 616.25l-2.37.002c-32.696-.044-64.524-5.173-95.63-15.252l-2.714-.87C185.479 592.704 163.215 581.897 143 569l-3.266-2.074c-14.57-9.508-28.082-20.392-40.812-32.227-2.71-2.504-5.465-4.948-8.234-7.386a100.333 100.333 0 0 1-9.864-10.18c-2.097-2.452-4.304-4.781-6.511-7.133C35.953 467.81 12.532 412.721 3 357l-.5-2.759C-2.897 323.536-2.517 288.654 3 258l.634-3.56c2.621-14.313 5.715-28.394 10.556-42.128a436.106 436.106 0 0 0 2.474-7.34C31.091 162.35 55.894 124.306 87 92l1.605-1.672C95.682 83 102.985 76.308 111 70c1.13-.93 2.26-1.862 3.387-2.797C157.049 32.041 210.269 9.293 265 2l1.952-.261c13.563-1.759 27.008-2.1 40.673-2.051Zm-64.5 31.438-3.787.907C168.476 49.582 106.028 95.318 67.125 157 48.281 188.355 34.39 221.852 28 258l-.373 2.106c-2.557 14.946-2.814 29.96-2.812 45.078-.002 2.915-.02 5.83-.04 8.746-.048 15.874.69 31.765 4.1 47.32l.526 2.494c.518 2.422 1.055 4.84 1.599 7.256l.46 2.091C43.132 425.464 71.5 473.863 110 511c3.057-2.907 5.53-5.96 8-9.375 13.924-18.792 30.36-36.624 49.321-50.395a247.744 247.744 0 0 0 5.202-3.945C190.902 433.214 211.695 422.851 233 414c.842-14.317 1.24-28.596 1.25-42.938l.003-3.139c-.019-28.933-2.358-57.396-7.253-85.923l-.619-3.606c-1.41-8.141-2.877-16.27-4.381-24.394l-.514-2.778c-.817-4.41-1.645-8.817-2.486-13.222h-1l-.288 1.781C212.732 270.096 200.574 295.643 185 322c-.555.94-1.11 1.881-1.68 2.85-9.205 15.565-9.205 15.565-12.66 20.584-1.841 2.336-1.841 2.336-1.66 4.566h-2l-.328-3.05c-.567-3.95-1.91-7.464-3.422-11.137-3.67-9.39-6.126-18.969-8.25-28.813l-.489-2.226c-3.38-16.02-3.238-32.468-3.511-48.774-5.443 4.54-10.503 9.35-15.5 14.375l-2.184 2.172a235.858 235.858 0 0 0-11.74 12.65C116.242 291.3 110.364 296.976 104 302c-7.144-14.288-2.905-43.722 0-59l.358-2.037c2.56-14.216 7.917-28.044 17.642-38.963l1.621-1.934c6.02-6.642 13.65-10.718 21.379-15.066-1.335-4.004-3.863-5.006-7.313-7.063C130.56 173.546 124.291 168.52 118 163c4.067-3.502 8.341-6.016 13.063-8.5l2.268-1.197c16.588-8.56 31.982-10.5 49.815-4.945 7.895 2.733 19.985 8.904 23.854 16.642h2l.297-2.02c2.366-14.582 7.36-26.286 19.203-35.667 15.197-10.667 31.645-17.458 50.5-16.313a3790.49 3790.49 0 0 1-2.813 10l-.79 2.832c-1.56 5.505-3.305 10.842-5.397 16.168l1.962-.003c26.858.109 51.58 5.762 71.726 24.503L346 167l1.387 1.371c9.388 9.882 12.847 22.693 15.613 35.629.329 1.334.661 2.668 1 4l-1.824-.365c-7.812-1.497-15.66-2.508-23.556-3.44-2.183-.258-4.365-.52-6.548-.783-7.35-.881-14.702-1.71-22.072-2.412l1.126 1.287C331 225.213 341.678 249.448 348 279c-37.763-9.047-72.81-19.688-100-49l-1-2h-2c1.58 8.417 3.6 16.71 5.653 25.02 2.913 11.8 5.766 23.603 8.347 35.48 2.203 10.095 4.547 20.151 6.975 30.194.383 1.585.765 3.171 1.145 4.758 2.155 8.975 4.498 17.857 7.147 26.7a290.663 290.663 0 0 1 4.233 15.786c1.631 6.646 3.318 13.273 5.125 19.875l.588 2.189.576 2.08.49 1.788c1.058 3.126 2.398 6.107 3.721 9.13l3.231.044c40.012.59 40.012.59 57.769 3.956l2.267.401C390.51 412.284 426.339 431.311 456 456l1.56 1.287C470.597 468.072 482.612 479.61 493 493c1.462 1.87 2.925 3.737 4.39 5.604a917.644 917.644 0 0 1 2.894 3.714c2.11 2.711 4.193 5.342 6.716 7.682 6.007-5.781 11.536-11.653 16.73-18.176 1.51-1.88 3.055-3.731 4.633-5.554 6.8-7.863 12.546-16.222 18.152-24.963a597.159 597.159 0 0 1 4.27-6.514c38.562-59.38 48.933-137.81 34.895-206.5C576.496 206.45 558.188 167.8 532 134l-1.918-2.508C517.096 114.838 501.749 98.872 485 86l-2.965-2.375C450.88 58.823 413.611 41.383 375 32l-2.662-.656a698.568 698.568 0 0 0-8.65-2.032l-2.581-.614c-16.82-3.702-34.158-4.05-51.308-4.014-3.1.003-6.198-.02-9.297-.045-19.404-.063-38.501 1.9-57.377 6.486Z"/><path fill="#000100" d="m307.625-.313 3.203.006C326.425-.262 341.618.209 357 3l3.04.52c59.002 10.217 113.867 36.88 157.42 78.041a255.2 255.2 0 0 0 4.552 4.138c4.727 4.211 9.197 8.423 13.27 13.274 1.882 2.22 3.86 4.334 5.843 6.465C568.956 136.35 589.28 174.606 602 214c.29.893.58 1.787.877 2.708 24.852 78.153 14.778 163.945-22.344 236.414C572.881 467.486 564.063 481.21 554 494l-1.558 1.986C537.81 514.534 521.735 532.511 503 547a1150.11 1150.11 0 0 0-3.258 2.633C491.492 556.286 482.95 562.326 474 568l-1.783 1.131C423.244 599.928 366.824 616.205 309 616.25l-2.37.002c-32.696-.044-64.524-5.173-95.63-15.252l-2.714-.87C185.479 592.704 163.215 581.897 143 569l-3.266-2.074c-14.57-9.508-28.082-20.392-40.812-32.227-2.71-2.504-5.465-4.948-8.234-7.386a100.333 100.333 0 0 1-9.864-10.18c-2.097-2.452-4.304-4.781-6.511-7.133C35.953 467.81 12.532 412.721 3 357l-.5-2.759C-2.897 323.536-2.517 288.654 3 258l.634-3.56c2.621-14.313 5.715-28.394 10.556-42.128a436.106 436.106 0 0 0 2.474-7.34C31.091 162.35 55.894 124.306 87 92l1.605-1.672C95.682 83 102.985 76.308 111 70c1.13-.93 2.26-1.862 3.387-2.797C157.049 32.041 210.269 9.293 265 2l1.952-.261c13.563-1.759 27.008-2.1 40.673-2.051Zm-64.5 31.438-3.787.907C168.476 49.582 106.028 95.318 67.125 157 48.281 188.355 34.39 221.852 28 258l-.373 2.106c-2.557 14.946-2.814 29.96-2.812 45.078-.002 2.915-.02 5.83-.04 8.746-.048 15.874.69 31.765 4.1 47.32l.526 2.494c.518 2.422 1.055 4.84 1.599 7.256l.46 2.091C40.65 414.321 60.354 453.338 87 486l1.284 1.591C100.277 502.377 113.816 516.481 129 528c1.247.985 2.493 1.973 3.738 2.96a336.605 336.605 0 0 0 23.762 17.102l2.46 1.625c8.43 5.8 8.43 5.8 18.04 8.313v2c5 2.593 10 4.848 15.251 6.882 2.613 1.063 5.13 2.243 7.67 3.466 6.652 3.037 13.506 5.109 20.517 7.152l2.002.587c3.324.975 6.651 1.94 9.982 2.891 2.14.611 4.278 1.227 6.414 1.853C275.056 593.364 315.923 594.34 353 588l3.224-.538C408.238 578.431 456.73 555.3 496 520l1.617-1.446c9.332-8.369 18.243-16.88 26.078-26.695a207.363 207.363 0 0 1 4.672-5.593c6.798-7.862 12.543-16.22 18.148-24.959a597.159 597.159 0 0 1 4.27-6.514c38.562-59.38 48.933-137.81 34.895-206.5C576.496 206.45 558.188 167.8 532 134l-1.918-2.508C517.096 114.838 501.749 98.872 485 86l-2.965-2.375C450.88 58.823 413.611 41.383 375 32l-2.662-.656a698.568 698.568 0 0 0-8.65-2.032l-2.581-.614c-16.82-3.702-34.158-4.05-51.308-4.014-3.1.003-6.198-.02-9.297-.045-19.404-.063-38.501 1.9-57.377 6.486Z"/><path fill="#42A011" d="M280 110c-.742 2.96-1.493 5.918-2.25 8.875l-.621 2.492c-1.572 6.097-3.667 11.84-6.129 17.633l1.87-.003c24.984.106 48.786 5.252 68.13 22.003l2.457 1.855c12.39 10.45 17.478 25.786 20.543 41.145v4c-14.092-1.507-28.165-3.061-42.194-5.085l-2.552-.364-2.209-.323c-2.365-.302-2.365-.302-6.045-.228l1.323 1.252c4.388 4.256 8.116 8.678 11.615 13.685l1.562 2.235C336.77 235.646 348 258.627 348 279c-42.381-4.161-80.801-24.794-108-57-.934-1.071-1.869-2.142-2.805-3.21l-3.132-3.602-1.45-1.65c-4.546-5.263-8.576-10.88-12.613-16.538l-.028 3.307c-.467 46.59-10.117 81.34-33.972 121.693l-1.665 2.818a1232.212 1232.212 0 0 1-9.015 15.017 374.05 374.05 0 0 0-2.703 4.505l-1.336 2.226-1.185 2.003L169 350h-2c-8.878-26.134-15.786-50.293-16.563-78.063l-.13-4.357c-.106-3.527-.208-7.053-.307-10.58a5817.93 5817.93 0 0 0-9.015 8.96 2327.27 2327.27 0 0 1-3.058 3.037c-5.32 5.276-10.551 10.573-15.427 16.27-5.782 6.682-12.056 12.936-19.5 17.733-5.71-17.131-3.33-42.488 0-60l.358-2.037c2.557-14.2 7.877-28.078 17.642-38.963l1.914-2.191C128.785 193.499 135.4 189.002 143 185h2c-2.484-2.734-5.261-4.53-8.375-6.5-7.036-4.61-13.31-9.96-19.625-15.5 3.626-4.257 8.115-6.47 13-9l2.567-1.34c16.855-8.623 32.352-10.98 50.583-5.297 9.058 3.12 17.009 9.02 23.85 15.637v2h2l-.313-3.125c.084-11.777 6.504-22.507 14.313-30.875 15.604-14.311 35.9-22.17 57-21Z"/><path fill="#00A6B6" d="m85.5 400.75 2.273.003c39.134.116 78.988 7.381 113.227 27.247-3.143 2.653-6.334 4.857-9.909 6.89-9.7 5.518-18.394 12.147-27.091 19.11l-1.709 1.35C147.831 466.822 134.082 480.224 123 495l-3.195 4.219A1710.631 1710.631 0 0 0 111 511c-9.336-7.898-17.465-16.352-25-26l-1.371-1.746c-16.07-20.562-29.092-42.982-39.442-66.942l-1.041-2.375c-1.57-3.771-2.42-6.035-1.146-9.937 14.203-2.397 28.125-3.293 42.5-3.25Z"/><path fill="#00A7B6" d="M574 404c-1.897 6.918-4.302 13.37-7.313 19.875l-1.221 2.662c-.798 1.73-1.599 3.459-2.404 5.185a627.433 627.433 0 0 0-2.527 5.5C553.52 452.043 544.221 466.205 534 479l-1.906 2.45c-7.815 9.944-15.937 19.809-25.094 28.55-3.215-3.055-5.845-6.326-8.5-9.875-12.71-16.708-26.831-32.28-43.5-45.125a4192.97 4192.97 0 0 1-3.824-3.047c-8.78-6.93-17.81-13.032-27.446-18.71-2.71-1.601-5.27-3.268-7.73-5.243 20.617-11.127 42.118-18.177 65-23l2.593-.563c29.34-6.176 60.904-4.593 90.407-.437Z"/><path fill="#FEB300" d="M444 59c14.838 8.185 28.815 17.343 42 28l1.602 1.285C502.729 100.526 517.262 114.453 529 130l2.395 3.02C568 179.286 568 179.286 568 196c-14.277 4.759-36.049 1.691-50-3l-3.344-1.063C501.528 187.35 489.442 180.137 479 171l-2.219-1.785c-19.43-16.112-32.676-41.98-35.59-66.87-.397-4.859-.376-9.723-.378-14.595l-.038-3.2C440.76 75.82 441.788 67.453 444 59Z"/><path fill="#8A4901" d="M219 196c5.34 5.251 5.34 5.251 7.508 8.129l1.285 1.68c.44.578.88 1.157 1.332 1.754 4.555 5.948 9.45 11.336 14.758 16.62 2.59 3.447 2.714 5.549 3.117 9.817.785 3.502 1.72 6.965 2.625 10.438 2.375 9.294 4.501 18.618 6.5 28 3.08 14.394 6.507 28.7 10 43l.77 3.166c2.762 11.356 5.67 22.628 9.042 33.819 1.33 4.474 2.479 8.975 3.563 13.514a471.41 471.41 0 0 0 5.889 21.977c1.35 4.693 2.11 9.225 2.611 14.086l-2.945.262a203.818 203.818 0 0 0-25.118 4.05l-2.568.572c-8.258 1.927-16.3 4.528-24.369 7.116l.02-2.333c.762-51.431.762-51.431-3.02-102.667l-.454-3.652c-1.924-14.917-4.594-29.72-7.3-44.512l-.593-3.327a267.758 267.758 0 0 0-1.484-7.367c-2.435-11.668-2.336-22.836-1.857-34.704.064-1.898.126-3.796.186-5.694.149-4.582.32-9.163.502-13.744Z"/><path fill="#00CDE0" d="m85.5 400.75 2.273.003c39.134.116 78.988 7.381 113.227 27.247-3.974 3.36-8.152 6.004-12.625 8.625-5.246 3.093-5.246 3.093-10.375 6.375-3.945-.315-7.519-1.9-11.177-3.323-17.864-6.94-35.814-10.565-54.823-12.677l-3.469-.402C89.374 424.758 70.096 426.183 51 428a6045.854 6045.854 0 0 1-3.375-7.188l-.96-2.04A723.368 723.368 0 0 1 44 413c-.425-.904-.85-1.807-1.29-2.738-.813-2.589-.456-3.716.29-6.262 14.203-2.397 28.125-3.293 42.5-3.25Z"/><path fill="#01CEE0" d="M574 404c-1.672 5.951-3.518 11.548-6.188 17.125l-1.605 3.383L565 427l-1.651-.092c-39.658-2.133-77.048-1.18-114.397 13.64l-2.593 1.01-2.266.916c-3.26.82-5.222-.015-8.136-1.55l-2.144-1.322-2.368-1.454-2.445-1.523-2.445-1.5c-3.64-2.246-7.16-4.52-10.555-7.125 20.617-11.127 42.118-18.177 65-23l2.593-.563c29.34-6.176 60.904-4.593 90.407-.437Z"/><path fill="#F61949" d="M313.984 343.04c4.504 2.146 7.744 6.287 11.016 9.96l-3 6 2.25-1.063c3.03-1.032 3.834-1.041 6.75.063 1.922 1.629 1.922 1.629 3.75 3.563l1.86 1.94c.458.495.917.988 1.39 1.497l-3 6 3.063-1.375c3.937-.625 3.937-.625 5.609.508a656.551 656.551 0 0 1 3.351 3.328c3.497 2.723 7.67 3.036 11.977 3.539v7l3 1 1-7 15 2 1 7h3l1-5c5.527-.194 9.756.252 15 2l1 6h3l1-5c3.147-.215 5.446-.233 8.375 1 2.205 2.714 2.135 4.716 1.941 8.137C413 396 413 396 411.875 397.812 410 399 410 399 407.363 400.146c-3.536 1.95-6.067 4.183-9.02 6.896-8.607 7.773-8.607 7.773-13.374 8.283-2.872-.823-5.311-1.964-7.969-3.324a184.285 184.285 0 0 0-6.313-2l-3.335-1.027c-20.941-6.078-42.666-7.48-64.352-7.973.878-4.394 3.287-7.22 6.063-10.625l1.489-1.86c.999-1.246 2-2.49 3.006-3.732a858.055 858.055 0 0 0 3.95-4.924c1.826-2.29 3.656-4.576 5.492-6.859-1.376-3.132-2.932-5.116-5.441-7.426l-2.018-1.916a489.62 489.62 0 0 0-4.219-3.906c-3.34-3.197-5.122-5.03-6.38-9.576C305 347 305 347 306.5 344.5c2.682-1.609 4.385-2.067 7.484-1.46Z"/><path fill="#5DC229" d="M329.938 163.875c11.704 9.139 19.39 18.612 23.062 33.125-10.93-.574-21.804-1.42-32.673-2.717a278.39 278.39 0 0 0-4.914-.523c-10.832-1.062-18.523-3.103-27.38-9.573C273.56 173.754 256.26 171.398 239 170v-1c26.669-5.457 53.073-5.756 76.996 8.328 2.453 1.365 4.27 2.215 7.004 2.672-.033-2.373-.033-2.373-1-5-8.69-6.899-19.413-10.262-30-13l-2.824-.746c-12.402-2.754-25.605-1.661-38.04.309A47.14 47.14 0 0 1 243 162c21.426-23.249 64.258-14.004 86.938 1.875Z"/><path fill="#007680" d="M70 462c26.003-.452 50.631.69 76 7-3.143 3.732-6.271 7.386-9.813 10.75-9.51 9.42-17.234 20.525-25.187 31.25-12.05-10.193-21.811-21.71-31.313-34.25l-1.526-2.004c-3.073-4.097-5.709-8.25-8.161-12.746ZM545 462c-1.559 4.112-3.441 7.186-6.125 10.688l-1.218 1.592A867.15 867.15 0 0 1 534 479l-1.95 2.512c-7.816 9.915-15.908 19.762-25.05 28.488-3.215-3.055-5.845-6.326-8.5-9.875-8.114-10.693-16.782-20.849-26.5-30.125 8.88-4.835 19.604-5.694 29.5-6.688l3.745-.385c13.259-1.25 26.448-1.227 39.755-.927Z"/><path fill="#015366" d="m565 427-6 14-1-2c-34.08-.69-34.08-.69-68 2l-2.124.292c-9.484 1.375-18.574 3.916-27.697 6.814-4.727 1.447-8.303 2.458-13.179.894-2.303-1.445-3.99-3.134-6-5 2.458-2.895 4.824-3.873 8.39-5.086l3.305-1.125 3.555-1.164 3.664-1.205C494.563 424.29 528.95 423.069 565 427Z"/><path fill="#015265" d="M177 443c-5.87 6.206-5.87 6.206-10 8-2.603-.518-4.68-1.127-7.125-2.063-9.16-3.165-18.359-5.163-27.875-6.937l-2.296-.43c-15.847-2.851-31.456-2.925-47.517-2.757-2.554.015-5.108.028-7.662.04-6.175.033-12.35.085-18.525.147l-5-11c42.669-7.711 86.27-1.833 126 15Z"/><path fill="#5BBF27" d="M191.375 162.438c4.035 3.013 7.906 6.166 11.625 9.562v1l-1.81.12c-11.497.796-22.704 1.79-33.896 4.647-6.833 1.661-12.193 1.616-18.435-1.876a226.9 226.9 0 0 1-4.109-2.641l-2.102-1.305c-3.98-2.546-6.904-5.012-9.648-8.945 2.33-1.134 4.663-2.257 7-3.375l1.965-.96c16.613-7.896 34.126-6.57 49.41 3.773Z"/><path fill="#56BA23" d="M267 120c-.8 8.39-4.085 16.137-9 23-3.112 2.547-6.237 3.68-10 5-10.949 5.52-20.546 12.224-30 20-2.134-6.212.633-13.161 3.363-18.832 2.707-4.664 5.525-8.63 9.637-12.168l1.75-1.57c8.526-7.203 22.723-16.108 34.25-15.43Z"/><path fill="#015265" d="M70 462c26.003-.452 50.631.69 76 7l-2.938 3.438-1.652 1.933A49.663 49.663 0 0 1 139 477a88.657 88.657 0 0 1-5.438-.313l-3.628-.3c-2.575-.253-5.146-.541-7.711-.867l-4.098-.52-2.179-.289c-5.266-.618-10.45-.738-15.747-.676-2.097.005-4.193.006-6.29.007a142.28 142.28 0 0 0-4.16.1c-4.45.172-8.471.156-12.749-1.142-3.24-3.294-5.195-6.768-7-11Z"/><path fill="#015165" d="M545 462c-3.748 9.553-3.748 9.553-7 12-4.434.83-8.764.504-13.25.25-13.054-.401-25.448.537-38.348 2.475-6.745.773-6.745.773-9.422-1.256l-1.793-1.969-1.832-1.969L472 470c8.88-4.835 19.604-5.694 29.5-6.688l3.745-.385c13.259-1.25 26.448-1.227 39.755-.927Z"/><path fill="#FC846F" d="M331 377c1.508 1.434 1.508 1.434 3.125 3.438a124.21 124.21 0 0 0 8.375 9.062c10.944 10.831 10.944 10.831 12.5 15.5-6.414-.454-12.76-1.08-19.125-2-8.6-1.197-17.206-1.623-25.875-2l1.095-1.451c2.7-3.589 5.379-7.19 8.01-10.83l3.082-4.219 1.577-2.203 1.529-2.078 1.36-1.877C328 377 328 377 331 377Z"/><path fill="#FD7E70" d="M353 391c6.194-.258 11.923.74 18 1.875 8.98 1.624 17.94 3.037 27 4.125-3.39 3.489-6.897 6.641-10.688 9.688-3.773 3.026-3.773 3.026-7.312 6.312-11.202-2.125-17.374-8.196-24-17-1.039-1.643-2.057-3.3-3-5Z"/><path fill="#FE7B02" d="M424 114c2 3 2 3 1.938 5.5-1.262 3.365-2.786 3.86-5.938 5.5-4.08 1.45-8.263 2.54-12.438 3.688l-3.392.97-3.291.916-2.982.831c-3.076.632-5.766.816-8.897.595-1.938-1.688-1.938-1.688-3-4 0-2.563 0-2.563 1-5 5.293-3.687 11.237-5.032 17.375-6.75l3.367-.996c10.667-3.01 10.667-3.01 16.258-1.254Z"/><path fill="#FE7A01" d="m392.625 80.664 2.252-.02c1.57-.01 3.14-.015 4.71-.015 2.405-.004 4.806-.04 7.21-.078 1.526-.006 3.052-.01 4.578-.012l2.178-.043c3.276.03 4.996.08 7.435 2.369 1.332 2.811 1.006 4.228.012 7.135-2.893 2.893-5.87 2.324-9.746 2.336l-2.324.02c-1.623.01-3.246.015-4.87.015-2.485.004-4.968.04-7.453.078-1.576.006-3.152.01-4.728.012l-2.254.043c-3.327-.029-5.138-.05-7.625-2.369-1-2.135-1-2.135-.875-4.76 1.973-5.354 6.644-4.696 11.5-4.71Z"/><path fill="#FE7E02" d="M455 170c1.938 1.125 1.938 1.125 3 3 .146 3.203-.339 5.171-2.355 7.7-3.693 3.76-7.725 7.174-11.735 10.59-1.815 1.625-3.407 3.337-5.035 5.148C436 199 436 199 432.812 199.563 430 199 430 199 428.125 197.813c-1.533-2.47-1.443-3.939-1.125-6.813 1.481-2.065 1.481-2.065 3.543-4.066l2.256-2.221 2.389-2.275 2.33-2.288C448.89 169.07 448.89 169.07 455 170Z"/><path fill="#FE7C02" d="M434 144c2 2 2 2 2.688 4.75-.786 3.712-1.146 3.997-4.125 6.063A220.964 220.964 0 0 1 427 158l-1.982 1.157a426.788 426.788 0 0 1-6.643 3.78l-2.17 1.256c-4.92 2.663-7.753 3.188-13.205 1.807-.75-3.25-.75-3.25-1-7 4.032-4.975 9.867-7.405 15.438-10.313l3.142-1.705 3.041-1.595 2.764-1.462c3.052-1.08 4.573-.954 7.615.075Z"/><path fill="#FE8003" d="M479 191.75c3 .25 3 .25 5 2.25 1.45 7.488-3.033 12.789-6.938 18.875l-1.998 3.203c-4.795 7.653-4.795 7.653-6.064 8.922-3.438.188-3.438.188-7 0-2-2-2-2-2.555-4.918.175-5.908 4.256-10.664 7.43-15.394l1.973-3.034c6.275-9.58 6.275-9.58 10.152-9.904Z"/><path fill="#FE8104" d="M510.938 207.688c3.062.312 3.062.312 5 1.375 2.32 4.23-.23 10.198-1.461 14.582-.612 2.057-1.23 4.113-1.852 6.167l-.922 3.178-.914 3.03-.822 2.753C509 241 509 241 506 243c-2.855.357-4.34.504-6.662-1.27C498 240 498 240 497.805 238.124c.864-6.277 2.569-12.079 4.632-18.06l.948-2.862c3.06-9.035 3.06-9.035 7.553-9.513Z"/><path fill="#FD7A02" d="m401 44 2.761.417c2.898.456 5.787.952 8.676 1.458l3.006.488 2.866.504 2.587.441C423 48 423 48 425 51c-.566 6.566-.566 6.566-2 8-7.36.69-14.296-.596-21.438-2.25l-2.966-.621-2.842-.645-2.553-.57C390.46 53.775 389.471 52.55 388 50c.125-2.625.125-2.625 1-5 4.133-2.755 7.332-1.73 12-1Z"/><path fill="#FE8305" d="M553 217c1.663 1.115 1.663 1.115 3 3 .388 2.955.388 2.955.398 6.531l.012 3.895-.019 2.026c-.016 2.041 0 4.08.02 6.122l-.013 3.895-.01 3.576C556 249 556 249 554.628 250.88c-2.383 1.638-3.8 1.602-6.628 1.119-2.872-2.194-3.894-3.371-4.502-6.977l.006-3.433-.002-3.748.06-3.905-.021-3.916c.064-9.47.064-9.47 1.799-11.89 2.598-1.77 4.608-1.512 7.66-1.131Z"/><path fill="#890A09" d="M324 372c1.938.813 1.938.813 4 2l1 3a67.159 67.159 0 0 1-4.438 6.063l-1.376 1.733A862.705 862.705 0 0 1 319 390l-2.414 3.043c-5.274 6.644-5.274 6.644-6.586 7.957-2.333.04-4.667.042-7 0 .877-4.366 3.243-7.175 6-10.563l1.482-1.852c1.498-1.868 3.006-3.728 4.518-5.585l1.4-1.725c2.52-3.103 5.053-6.194 7.6-9.275Z"/><path fill="#870709" d="M402.375 397.813 406 399c-3.169 4.285-6.711 7.59-10.813 10.938l-1.79 1.572c-4.38 3.557-4.38 3.557-7.406 3.358-1.94-.552-1.94-.552-4.991-1.868 2.616-7.258 13.558-16.16 21.375-15.188Z"/><path fill="#890809" d="M342 389c3.66-.494 6.508-.236 10 1 6.09 4.72 11.282 11.294 15 18-5.2-.214-9.458-.727-13.559-4.113A108.301 108.301 0 0 1 347 396l-1.668-2.215A155.04 155.04 0 0 1 342 389Z"/><path fill="#025162" d="M97 497c2.917.114 5.833.24 8.75.375l2.5.094 2.422.117 2.222.095C115 498 115 498 119 500l-8 11c-4.894-4.095-9.707-8.264-14-13v-1Z"/><path fill="#034F60" d="M517 498c-1.477 3.452-3.438 5.65-6.125 8.25l-2.195 2.14L507 510c-3.6-3.418-5.664-6.66-8-11 6.026-1.071 11.89-1.1 18-1Z"/><path fill="#FDDCE5" d="m359 377 4 1-1 7-4-1 1-7Z"/><path fill="#FEE5F1" d="M399 383h4v7l-4 1v-8Z"/><path fill="#FEECF3" d="m379 380 4 1v6l-4 1v-8Z"/><path fill="#FEF3F1" d="M325 353c2.125.375 2.125.375 4 1-.688 1.938-.688 1.938-2 4-2.625.75-2.625.75-5 1 .573-2.867.861-3.861 3-6Z"/><path fill="#FEF5F5" d="M338 365h3l-1 5-5 1c.573-2.867.861-3.861 3-6Z"/><path fill="#99CABB" d="M410 44c3.558.61 6.683 1.578 10 3-4.002 1.6-7.046.293-11-1l1-2Z"/></svg>