<?xml version="1.0" encoding="UTF-8"?>
<!DOCTYPE svg PUBLIC "-//W3C//DTD SVG 1.1//EN" "http://www.w3.org/Graphics/SVG/1.1/DTD/svg11.dtd">
<svg xmlns="http://www.w3.org/2000/svg" version="1.1" width="192px" height="192px" style="shape-rendering:geometricPrecision; text-rendering:geometricPrecision; image-rendering:optimizeQuality; fill-rule:evenodd; clip-rule:evenodd" xmlns:xlink="http://www.w3.org/1999/xlink">
<g><path style="opacity:1" fill="#433d37" d="M 41.5,21.5 C 43.1789,21.8923 44.8455,22.3923 46.5,23C 52.366,28.5313 57.866,34.3647 63,40.5C 63.1218,38.7184 62.6218,37.0518 61.5,35.5C 74.1334,32.3932 86.8001,30.3932 99.5,29.5C 103.198,29.5524 106.865,29.8857 110.5,30.5C 132.329,34.8383 149.495,46.1716 162,64.5C 162.782,67.3102 163.616,69.9768 164.5,72.5C 164.34,74.153 163.674,75.4863 162.5,76.5C 162.214,74.0673 161.548,74.0673 160.5,76.5C 159.833,78.8333 159.167,81.1667 158.5,83.5C 154.909,71.0787 147.242,62.2454 135.5,57C 133.613,56.2204 131.946,56.3871 130.5,57.5C 115.631,54.1285 102.964,57.7952 92.5,68.5C 91.6868,67.3473 90.6868,67.3473 89.5,68.5C 84.7912,73.5855 81.9579,79.5855 81,86.5C 80.4533,90.1604 79.9533,93.827 79.5,97.5C 79.9887,101.075 81.3221,104.075 83.5,106.5C 83.5,106.833 83.5,107.167 83.5,107.5C 82.9647,111.067 83.4647,114.734 85,118.5C 93.3392,133.753 106.173,140.753 123.5,139.5C 122.85,141.435 122.517,143.435 122.5,145.5C 125.482,145.173 128.315,145.173 131,145.5C 133.691,139.418 137.857,137.084 143.5,138.5C 144.886,141.9 144.219,144.9 141.5,147.5C 140.522,147.023 139.689,146.357 139,145.5C 137.142,147.737 134.976,149.57 132.5,151C 133.167,151.333 133.833,151.667 134.5,152C 132.968,152.7 131.968,153.866 131.5,155.5C 127.937,158.47 126.603,157.47 127.5,152.5C 120.929,153.227 116.095,156.56 113,162.5C 113.195,160.874 113.195,159.207 113,157.5C 111.174,159.074 109.007,159.907 106.5,160C 105.833,161.333 104.833,162.333 103.5,163C 103.833,163.333 104.167,163.667 104.5,164C 103.207,164.49 101.873,164.657 100.5,164.5C 100.938,168.734 99.2717,170.401 95.5,169.5C 96.373,167.587 97.373,165.753 98.5,164C 97.5509,163.383 96.7175,163.549 96,164.5C 96.0354,160.755 95.0354,160.088 93,162.5C 91.8831,162.335 90.7164,162.002 89.5,161.5C 87.0681,164.688 84.4015,167.688 81.5,170.5C 81.1667,170.333 80.8333,170.167 80.5,170C 82.2189,168.13 83.2189,165.963 83.5,163.5C 79.4967,162.452 75.33,161.452 71,160.5C 68.1945,161.473 67.6945,163.14 69.5,165.5C 68.5303,167.483 67.5303,169.483 66.5,171.5C 66.1667,171.167 65.8333,170.833 65.5,170.5C 66.7853,167.979 67.4519,165.313 67.5,162.5C 65.4086,162.318 63.4086,162.652 61.5,163.5C 57.8944,160.968 54.3944,160.968 51,163.5C 50.819,158.796 48.4856,155.796 44,154.5C 43.5172,153.552 43.3505,152.552 43.5,151.5C 39.6527,150.816 35.6527,149.816 31.5,148.5C 31.5875,145.402 31.0875,145.068 30,147.5C 29.0853,146.672 28.4186,145.672 28,144.5C 25.6845,145.367 23.6845,144.701 22,142.5C 21.6012,142.728 21.4346,143.062 21.5,143.5C 19.7346,141.5 18.0679,139.333 16.5,137C 6.36416,111.65 8.86416,87.817 24,65.5C 24.3333,67.1667 24.6667,68.8333 25,70.5C 26.1827,71.731 27.3493,71.731 28.5,70.5C 22.7952,59.657 21.1285,48.3237 23.5,36.5C 23.369,37.2389 23.5357,37.9056 24,38.5C 25.6982,33.49 28.1982,28.99 31.5,25C 34.7761,23.3077 38.1095,22.141 41.5,21.5 Z"/></g>
<g><path style="opacity:0.712" fill="#272420" d="M 120.5,22.5 C 120.088,24.9726 121.088,26.3059 123.5,26.5C 122.954,28.3032 122.12,29.9698 121,31.5C 116.808,28.9965 112.308,28.1631 107.5,29C 108.737,29.2321 109.737,29.7321 110.5,30.5C 106.865,29.8857 103.198,29.5524 99.5,29.5C 96.65,29.3639 93.8166,29.0305 91,28.5C 86.8333,29.2338 82.6666,29.9004 78.5,30.5C 78.9175,29.7784 79.5842,29.2784 80.5,29C 73.291,28.6766 66.4576,30.1766 60,33.5C 59.5172,32.552 59.3505,31.552 59.5,30.5C 78.0556,23.1508 97.0556,21.8175 116.5,26.5C 116.783,27.2891 117.283,27.9558 118,28.5C 118.845,26.3885 119.678,24.3885 120.5,22.5 Z"/></g>
<g><path style="opacity:0.996" fill="#9c9481" d="M 99.5,29.5 C 86.8001,30.3932 74.1334,32.3932 61.5,35.5C 66.6119,32.4678 72.2786,30.8012 78.5,30.5C 82.6666,29.9004 86.8333,29.2338 91,28.5C 93.8166,29.0305 96.65,29.3639 99.5,29.5 Z"/></g>
<g><path style="opacity:0.981" fill="#c27b66" d="M 38.5,33.5 C 41.4245,33.4598 44.0912,34.2932 46.5,36C 50.0233,40.0224 53.3566,44.189 56.5,48.5C 55.6086,49.5896 54.6086,49.5896 53.5,48.5C 52.4104,49.3914 52.4104,50.3914 53.5,51.5C 52.6086,52.5896 51.6086,52.5896 50.5,51.5C 49.7022,53.0777 49.2022,54.7444 49,56.5C 47.9887,57.3366 46.8221,57.67 45.5,57.5C 45.5175,61.3765 44.3508,62.0432 42,59.5C 41.7978,61.2556 41.2978,62.9223 40.5,64.5C 39.914,64.2907 39.414,63.9574 39,63.5C 38.7811,64.938 38.2811,66.2713 37.5,67.5C 35.5409,64.8286 34.0409,61.8286 33,58.5C 32.3333,52.5 32.3333,46.5 33,40.5C 34.3162,37.6925 36.1495,35.3592 38.5,33.5 Z"/></g>
<g><path style="opacity:1" fill="#0c0a08" d="M 147.5,53.5 C 150.695,53.5131 152.362,55.1798 152.5,58.5C 151.645,62.5238 149.812,63.1905 147,60.5C 146.297,58.0709 146.463,55.7375 147.5,53.5 Z"/></g>
<g><path style="opacity:1" fill="#6f6055" d="M 130.5,57.5 C 149.662,65.4646 158.162,79.7979 156,100.5C 151.584,121.422 138.75,132.422 117.5,133.5C 106.893,132.78 98.0598,128.447 91,120.5C 88.4594,116.072 85.9594,111.738 83.5,107.5C 83.5,107.167 83.5,106.833 83.5,106.5C 81.8553,98.6053 82.1886,90.9386 84.5,83.5C 87.0392,80.2156 89.5392,76.2156 92,71.5C 102.688,60.7911 115.521,56.1244 130.5,57.5 Z"/></g>
<g><path style="opacity:1" fill="#b6ac99" d="M 130.5,57.5 C 115.521,56.1244 102.688,60.7911 92,71.5C 89.5392,76.2156 87.0392,80.2156 84.5,83.5C 85.878,77.7403 88.5446,72.7403 92.5,68.5C 102.964,57.7952 115.631,54.1285 130.5,57.5 Z"/></g>
<g><path style="opacity:1" fill="#cbb49a" d="M 181.5,71.5 C 171.835,67.0816 165.668,70.0816 163,80.5C 162.517,79.552 162.351,78.552 162.5,77.5C 162.5,77.1667 162.5,76.8333 162.5,76.5C 163.674,75.4863 164.34,74.153 164.5,72.5C 168.653,67.7274 173.653,66.5607 179.5,69C 180.381,69.7083 181.047,70.5416 181.5,71.5 Z"/></g>
<g><path style="opacity:0.968" fill="#b97966" d="M 181.5,71.5 C 185.479,79.6807 183.479,86.1807 175.5,91C 167.846,91.5155 163.179,88.0155 161.5,80.5C 161.52,79.2739 161.853,78.2739 162.5,77.5C 162.351,78.552 162.517,79.552 163,80.5C 165.668,70.0816 171.835,67.0816 181.5,71.5 Z"/></g>
<g><path style="opacity:1" fill="#0d0b09" d="M 62.5,74.5 C 65.5248,75.0332 66.8581,76.8665 66.5,80C 66.4711,84.3224 64.4711,85.4891 60.5,83.5C 58.7241,79.7701 59.3908,76.7701 62.5,74.5 Z"/></g>
<g><path style="opacity:1" fill="#211e1a" d="M 92.5,68.5 C 88.5446,72.7403 85.878,77.7403 84.5,83.5C 82.1886,90.9386 81.8553,98.6053 83.5,106.5C 81.3221,104.075 79.9887,101.075 79.5,97.5C 79.9533,93.827 80.4533,90.1604 81,86.5C 81.9579,79.5855 84.7912,73.5855 89.5,68.5C 90.6868,67.3473 91.6868,67.3473 92.5,68.5 Z"/></g>
<g><path style="opacity:0.969" fill="#130f0c" d="M 151.5,157.5 C 150.325,157.719 149.325,157.386 148.5,156.5C 157.974,147.222 164.641,136.222 168.5,123.5C 171.175,113.392 172.175,103.058 171.5,92.5C 167.326,92.3414 163.992,90.6747 161.5,87.5C 160.656,83.9009 160.323,80.2343 160.5,76.5C 161.548,74.0673 162.214,74.0673 162.5,76.5C 162.5,76.8333 162.5,77.1667 162.5,77.5C 161.853,78.2739 161.52,79.2739 161.5,80.5C 163.179,88.0155 167.846,91.5155 175.5,91C 183.479,86.1807 185.479,79.6807 181.5,71.5C 181.047,70.5416 180.381,69.7083 179.5,69C 173.653,66.5607 168.653,67.7274 164.5,72.5C 163.616,69.9768 162.782,67.3102 162,64.5C 149.495,46.1716 132.329,34.8383 110.5,30.5C 109.737,29.7321 108.737,29.2321 107.5,29C 112.308,28.1631 116.808,28.9965 121,31.5C 122.12,29.9698 122.954,28.3032 123.5,26.5C 125.452,22.7129 128.286,19.7129 132,17.5C 132.483,18.448 132.649,19.448 132.5,20.5C 128.253,23.0716 125.586,26.7382 124.5,31.5C 130.98,34.5732 137.314,37.9065 143.5,41.5C 144.979,44.3049 147.312,45.9716 150.5,46.5C 153.225,37.354 154.058,28.0206 153,18.5C 152.76,16.1484 151.927,14.1484 150.5,12.5C 141.976,6.45363 134.309,7.45363 127.5,15.5C 124.833,17.5 122.5,19.8333 120.5,22.5C 119.678,24.3885 118.845,26.3885 118,28.5C 117.283,27.9558 116.783,27.2891 116.5,26.5C 117.008,23.1485 118.342,20.1485 120.5,17.5C 124.352,13.8137 128.352,10.3137 132.5,7C 149.026,2.01832 157.693,8.18499 158.5,25.5C 157.545,33.4991 155.712,41.1658 153,48.5C 158.4,53.9036 163.067,59.9036 167,66.5C 177.899,62.366 185.065,65.866 188.5,77C 187.526,84.811 183.526,90.311 176.5,93.5C 176.923,113.722 171.423,132.056 160,148.5C 157.272,151.724 154.439,154.724 151.5,157.5 Z"/></g>
<g><path style="opacity:0.985" fill="#bb7763" d="M 147.5,25.5 C 147.663,29.7071 147.329,33.8737 146.5,38C 146.285,39.9078 145.285,41.0744 143.5,41.5C 137.314,37.9065 130.98,34.5732 124.5,31.5C 125.586,26.7382 128.253,23.0716 132.5,20.5C 133.872,19.4884 135.205,18.4884 136.5,17.5C 142.842,16.2032 146.509,18.8699 147.5,25.5 Z"/></g>
<g><path style="opacity:1" fill="#413a33" d="M 150.5,12.5 C 151.927,14.1484 152.76,16.1484 153,18.5C 154.058,28.0206 153.225,37.354 150.5,46.5C 147.312,45.9716 144.979,44.3049 143.5,41.5C 145.285,41.0744 146.285,39.9078 146.5,38C 147.329,33.8737 147.663,29.7071 147.5,25.5C 148.88,25.9623 149.547,26.9623 149.5,28.5C 148.772,30.1547 148.605,31.8214 149,33.5C 152.937,19.438 147.77,13.7713 133.5,16.5C 134.325,17.3857 135.325,17.719 136.5,17.5C 135.205,18.4884 133.872,19.4884 132.5,20.5C 132.649,19.448 132.483,18.448 132,17.5C 128.286,19.7129 125.452,22.7129 123.5,26.5C 121.088,26.3059 120.088,24.9726 120.5,22.5C 122.5,19.8333 124.833,17.5 127.5,15.5C 127.435,15.9382 127.601,16.2716 128,16.5C 134.396,9.81108 141.563,8.81108 149.5,13.5C 150.107,13.3764 150.44,13.0431 150.5,12.5 Z"/></g>
<g><path style="opacity:0.998" fill="#1b1713" d="M 147.5,25.5 C 146.509,18.8699 142.842,16.2032 136.5,17.5C 135.325,17.719 134.325,17.3857 133.5,16.5C 147.77,13.7713 152.937,19.438 149,33.5C 148.605,31.8214 148.772,30.1547 149.5,28.5C 149.547,26.9623 148.88,25.9623 147.5,25.5 Z"/></g>
<g><path style="opacity:0.996" fill="#8c8473" d="M 150.5,12.5 C 150.44,13.0431 150.107,13.3764 149.5,13.5C 141.563,8.81108 134.396,9.81108 128,16.5C 127.601,16.2716 127.435,15.9382 127.5,15.5C 134.309,7.45363 141.976,6.45363 150.5,12.5 Z"/></g>
<g><path style="opacity:0.004" fill="#000000" d="M 1.5,96.5 C 3.33702,96.6395 3.67036,97.3061 2.5,98.5C 1.70245,98.0431 1.36912,97.3764 1.5,96.5 Z"/></g>
<g><path style="opacity:0.999" fill="#1f1b17" d="M 137.5,104.5 C 131.959,107.934 125.959,110.267 119.5,111.5C 119.953,116.683 119.453,122.017 118,127.5C 113.755,130.769 110.421,130.102 108,125.5C 106.71,121.27 106.21,116.936 106.5,112.5C 100.769,111.764 96.7688,108.764 94.5,103.5C 95.4835,99.3514 97.9835,96.6848 102,95.5C 107.129,96.3689 112.296,96.7022 117.5,96.5C 117.002,91.8478 116.669,87.1811 116.5,82.5C 112.743,82.9292 109.243,82.2625 106,80.5C 104.824,76.7399 105.99,73.9066 109.5,72C 114.373,69.352 119.373,69.0187 124.5,71C 126.978,72.938 127.145,75.1047 125,77.5C 121.916,79.0805 119.749,81.4138 118.5,84.5C 119.246,88.1317 119.579,91.7983 119.5,95.5C 124.951,94.4041 129.951,92.2374 134.5,89C 140.979,86.8319 143.812,88.9986 143,95.5C 141.671,98.829 139.837,101.829 137.5,104.5 Z"/></g>
<g><path style="opacity:1" fill="#df6832" d="M 107.5,77.5 C 110.511,76.3307 113.178,74.664 115.5,72.5C 118.03,71.2243 120.697,71.2243 123.5,72.5C 124.848,74.6114 124.515,76.4447 122.5,78C 118.106,80.3739 113.44,81.0405 108.5,80C 107.748,79.3292 107.414,78.4959 107.5,77.5 Z"/></g>
<g><path style="opacity:1" fill="#d4a98c" d="M 115.5,72.5 C 113.178,74.664 110.511,76.3307 107.5,77.5C 109.193,74.3182 111.859,72.6516 115.5,72.5 Z"/></g>
<g><path style="opacity:0.9" fill="#110e0a" d="M 59.5,30.5 C 59.3505,31.552 59.5172,32.552 60,33.5C 66.4576,30.1766 73.291,28.6766 80.5,29C 79.5842,29.2784 78.9175,29.7784 78.5,30.5C 72.2786,30.8012 66.6119,32.4678 61.5,35.5C 62.6218,37.0518 63.1218,38.7184 63,40.5C 57.866,34.3647 52.366,28.5313 46.5,23C 44.8455,22.3923 43.1789,21.8923 41.5,21.5C 31.0119,20.9802 25.0119,25.9802 23.5,36.5C 21.1285,48.3237 22.7952,59.657 28.5,70.5C 27.3493,71.731 26.1827,71.731 25,70.5C 24.6667,68.8333 24.3333,67.1667 24,65.5C 8.86416,87.817 6.36416,111.65 16.5,137C 18.0679,139.333 19.7346,141.5 21.5,143.5C 22.7232,147.049 24.7232,150.049 27.5,152.5C 34.6199,160.738 42.9532,167.572 52.5,173C 50.9419,173.21 49.6085,173.71 48.5,174.5C 21.2751,159.416 6.94172,136.25 5.5,105C 7.06417,88.6397 12.3975,73.6397 21.5,60C 16.7897,47.8598 17.9563,36.0265 25,24.5C 32.4218,16.4568 40.9218,15.2902 50.5,21C 53.7322,24.0623 56.7322,27.229 59.5,30.5 Z"/></g>
<g><path style="opacity:1" fill="#b7ad9a" d="M 41.5,21.5 C 38.1095,22.141 34.7761,23.3077 31.5,25C 28.1982,28.99 25.6982,33.49 24,38.5C 23.5357,37.9056 23.369,37.2389 23.5,36.5C 25.0119,25.9802 31.0119,20.9802 41.5,21.5 Z"/></g>
<g><path style="opacity:0.996" fill="#afa48c" d="M 137.5,104.5 C 138.773,105.077 138.773,105.743 137.5,106.5C 132.938,109.559 127.938,111.559 122.5,112.5C 121.274,112.48 120.274,112.147 119.5,111.5C 125.959,110.267 131.959,107.934 137.5,104.5 Z"/></g>
<g><path style="opacity:0.004" fill="#feff00" d="M 2.5,112.5 C 3.52502,112.897 3.69169,113.563 3,114.5C 2.53566,113.906 2.36899,113.239 2.5,112.5 Z"/></g>
<g><path style="opacity:0.996" fill="#151310" d="M 130.5,57.5 C 131.946,56.3871 133.613,56.2204 135.5,57C 147.242,62.2454 154.909,71.0787 158.5,83.5C 162.362,112.464 150.028,129.797 121.5,135.5C 119.829,135.332 118.496,134.665 117.5,133.5C 138.75,132.422 151.584,121.422 156,100.5C 158.162,79.7979 149.662,65.4646 130.5,57.5 Z"/></g>
<g><path style="opacity:0.004" fill="#000000" d="M 187.5,121.5 C 190.001,121.511 190.168,122.178 188,123.5C 187.536,122.906 187.369,122.239 187.5,121.5 Z"/></g>
<g><path style="opacity:0.998" fill="#201b17" d="M 62.5,98.5 C 51.9449,95.0775 45.6116,98.7442 43.5,109.5C 43.0011,114.638 45.0011,118.304 49.5,120.5C 52.8333,121.833 56.1667,121.833 59.5,120.5C 60.609,120.443 61.609,120.11 62.5,119.5C 65.3903,118.101 66.8903,115.768 67,112.5C 67.6667,109.833 67.6667,107.167 67,104.5C 66.7216,103.584 66.2216,102.918 65.5,102.5C 64.5876,101.262 64.4209,99.9285 65,98.5C 67.043,99.5794 68.3763,101.246 69,103.5C 71.1846,118.649 64.6846,125.149 49.5,123C 39.4523,117.358 37.7857,109.691 44.5,100C 50.2629,95.0895 56.5962,94.2562 63.5,97.5C 63.3764,98.1067 63.0431,98.44 62.5,98.5 Z"/></g>
<g><path style="opacity:0.996" fill="#815c4d" d="M 59.5,120.5 C 56.1667,121.833 52.8333,121.833 49.5,120.5C 50.8333,120.5 52.1667,120.5 53.5,120.5C 54.4877,115.005 56.6543,110.005 60,105.5C 58.6569,110.044 56.8235,114.544 54.5,119C 55.3317,119.688 55.9984,119.521 56.5,118.5C 57.8061,114.554 59.6394,110.888 62,107.5C 61.1816,110.836 60.0149,114.169 58.5,117.5C 58.685,118.584 59.0183,119.584 59.5,120.5 Z"/></g>
<g><path style="opacity:0.992" fill="#b0735f" d="M 62.5,119.5 C 61.609,120.11 60.609,120.443 59.5,120.5C 59.0183,119.584 58.685,118.584 58.5,117.5C 60.0149,114.169 61.1816,110.836 62,107.5C 59.6394,110.888 57.8061,114.554 56.5,118.5C 55.9984,119.521 55.3317,119.688 54.5,119C 56.8235,114.544 58.6569,110.044 60,105.5C 56.6543,110.005 54.4877,115.005 53.5,120.5C 52.1667,120.5 50.8333,120.5 49.5,120.5C 45.0011,118.304 43.0011,114.638 43.5,109.5C 44.7498,109.423 45.5831,108.756 46,107.5C 49.9244,108.634 50.4244,110.801 47.5,114C 50.7566,114.279 51.7566,112.946 50.5,110C 51.4601,108.581 52.2935,107.081 53,105.5C 54.0113,104.663 55.1779,104.33 56.5,104.5C 57.1055,98.7937 58.1055,98.4604 59.5,103.5C 61.3279,104.795 63.3279,105.795 65.5,106.5C 65.3775,108.378 65.3775,110.211 65.5,112C 63.3069,114.025 62.3069,116.525 62.5,119.5 Z"/></g>
<g><path style="opacity:0.992" fill="#9b715c" d="M 62.5,98.5 C 63.4478,100.46 63.6145,102.46 63,104.5C 63.7083,103.619 64.5416,102.953 65.5,102.5C 66.2216,102.918 66.7216,103.584 67,104.5C 67.6667,107.167 67.6667,109.833 67,112.5C 66.8903,115.768 65.3903,118.101 62.5,119.5C 62.3069,116.525 63.3069,114.025 65.5,112C 65.3775,110.211 65.3775,108.378 65.5,106.5C 63.3279,105.795 61.3279,104.795 59.5,103.5C 58.1055,98.4604 57.1055,98.7937 56.5,104.5C 55.1779,104.33 54.0113,104.663 53,105.5C 52.2935,107.081 51.4601,108.581 50.5,110C 51.7566,112.946 50.7566,114.279 47.5,114C 50.4244,110.801 49.9244,108.634 46,107.5C 45.5831,108.756 44.7498,109.423 43.5,109.5C 45.6116,98.7442 51.9449,95.0775 62.5,98.5 Z"/></g>
<g><path style="opacity:0.004" fill="#000000" d="M 180.5,124.5 C 180.5,125.167 180.5,125.833 180.5,126.5C 178.24,125.762 178.073,124.762 180,123.5C 180.399,123.728 180.565,124.062 180.5,124.5 Z"/></g>
<g><path style="opacity:0.039" fill="#b86a33" d="M 180.5,126.5 C 180.5,125.833 180.5,125.167 180.5,124.5C 181.858,123.374 183.192,123.374 184.5,124.5C 183.68,126.111 182.346,126.778 180.5,126.5 Z"/></g>
<g><path style="opacity:1" fill="#282522" d="M 160.5,76.5 C 160.323,80.2343 160.656,83.9009 161.5,87.5C 161.404,92.632 161.238,97.9653 161,103.5C 158.167,119.978 149,131.478 133.5,138C 130.243,139.043 126.91,139.543 123.5,139.5C 106.173,140.753 93.3392,133.753 85,118.5C 83.4647,114.734 82.9647,111.067 83.5,107.5C 85.9594,111.738 88.4594,116.072 91,120.5C 98.0598,128.447 106.893,132.78 117.5,133.5C 118.496,134.665 119.829,135.332 121.5,135.5C 150.028,129.797 162.362,112.464 158.5,83.5C 159.167,81.1667 159.833,78.8333 160.5,76.5 Z"/></g>
<g><path style="opacity:1" fill="#893c1e" d="M 109.5,110.5 C 112.012,109.133 114.345,109.466 116.5,111.5C 114.906,114.061 113.906,117.061 113.5,120.5C 112.59,116.777 111.257,113.443 109.5,110.5 Z"/></g>
<g><path style="opacity:1" fill="#c54727" d="M 109.5,110.5 C 111.257,113.443 112.59,116.777 113.5,120.5C 113.906,117.061 114.906,114.061 116.5,111.5C 117.648,115.981 117.815,120.648 117,125.5C 113.512,128.462 110.845,127.795 109,123.5C 108.186,118.98 108.353,114.646 109.5,110.5 Z"/></g>
<g><path style="opacity:0.007" fill="#ff5905" d="M 178.5,134.5 C 179.497,134.47 180.164,134.97 180.5,136C 180.13,139.372 178.797,142.205 176.5,144.5C 176.167,144.167 175.833,143.833 175.5,143.5C 177.371,140.766 178.371,137.766 178.5,134.5 Z"/></g>
<g><path style="opacity:0.004" fill="#fe0000" d="M 174.5,137.5 C 175.833,138.167 175.833,138.167 174.5,137.5 Z"/></g>
<g><path style="opacity:0.008" fill="#ffb1fa" d="M 7.5,140.5 C 9.22516,140.843 9.72516,141.843 9,143.5C 7.96141,142.756 7.46141,141.756 7.5,140.5 Z"/></g>
<g><path style="opacity:0.004" fill="#ff2f00" d="M 171.5,142.5 C 172.376,142.369 173.043,142.702 173.5,143.5C 172.86,146.648 171.86,146.981 170.5,144.5C 170.863,143.817 171.196,143.15 171.5,142.5 Z"/></g>
<g><path style="opacity:0.004" fill="#fe0000" d="M 166.5,145.5 C 167.239,145.369 167.906,145.536 168.5,146C 164.974,150.615 164.307,150.448 166.5,145.5 Z"/></g>
<g><path style="opacity:0.027" fill="#ff5218" d="M 159.5,153.5 C 160.376,153.369 161.043,153.702 161.5,154.5C 160.5,156.167 159.167,157.5 157.5,158.5C 157.167,158 156.833,157.5 156.5,157C 157.544,155.826 158.544,154.659 159.5,153.5 Z"/></g>
<g><path style="opacity:1" fill="#39352f" d="M 161.5,87.5 C 163.992,90.6747 167.326,92.3414 171.5,92.5C 172.175,103.058 171.175,113.392 168.5,123.5C 156.89,144.609 140.223,160.443 118.5,171C 84.6188,180.592 54.2855,174.425 27.5,152.5C 24.7232,150.049 22.7232,147.049 21.5,143.5C 21.4346,143.062 21.6012,142.728 22,142.5C 23.6845,144.701 25.6845,145.367 28,144.5C 28.4186,145.672 29.0853,146.672 30,147.5C 31.0875,145.068 31.5875,145.402 31.5,148.5C 35.6527,149.816 39.6527,150.816 43.5,151.5C 43.3505,152.552 43.5172,153.552 44,154.5C 48.4856,155.796 50.819,158.796 51,163.5C 54.3944,160.968 57.8944,160.968 61.5,163.5C 63.4086,162.652 65.4086,162.318 67.5,162.5C 67.4519,165.313 66.7853,167.979 65.5,170.5C 65.8333,170.833 66.1667,171.167 66.5,171.5C 67.5303,169.483 68.5303,167.483 69.5,165.5C 67.6945,163.14 68.1945,161.473 71,160.5C 75.33,161.452 79.4967,162.452 83.5,163.5C 83.2189,165.963 82.2189,168.13 80.5,170C 80.8333,170.167 81.1667,170.333 81.5,170.5C 84.4015,167.688 87.0681,164.688 89.5,161.5C 90.7164,162.002 91.8831,162.335 93,162.5C 95.0354,160.088 96.0354,160.755 96,164.5C 96.7175,163.549 97.5509,163.383 98.5,164C 97.373,165.753 96.373,167.587 95.5,169.5C 99.2717,170.401 100.938,168.734 100.5,164.5C 101.873,164.657 103.207,164.49 104.5,164C 104.167,163.667 103.833,163.333 103.5,163C 104.833,162.333 105.833,161.333 106.5,160C 109.007,159.907 111.174,159.074 113,157.5C 113.195,159.207 113.195,160.874 113,162.5C 116.095,156.56 120.929,153.227 127.5,152.5C 126.603,157.47 127.937,158.47 131.5,155.5C 131.968,153.866 132.968,152.7 134.5,152C 133.833,151.667 133.167,151.333 132.5,151C 134.976,149.57 137.142,147.737 139,145.5C 139.689,146.357 140.522,147.023 141.5,147.5C 144.219,144.9 144.886,141.9 143.5,138.5C 137.857,137.084 133.691,139.418 131,145.5C 128.315,145.173 125.482,145.173 122.5,145.5C 122.517,143.435 122.85,141.435 123.5,139.5C 126.91,139.543 130.243,139.043 133.5,138C 149,131.478 158.167,119.978 161,103.5C 161.238,97.9653 161.404,92.632 161.5,87.5 Z"/></g>
<g><path style="opacity:0.012" fill="#f7510e" d="M 135.5,173.5 C 136.289,173.783 136.956,174.283 137.5,175C 135.996,176.788 134.329,177.288 132.5,176.5C 133.34,175.265 134.34,174.265 135.5,173.5 Z"/></g>
<g><path style="opacity:1" fill="#25211c" d="M 168.5,123.5 C 164.641,136.222 157.974,147.222 148.5,156.5C 149.325,157.386 150.325,157.719 151.5,157.5C 150.833,158.167 150.167,158.833 149.5,159.5C 147.473,159.338 145.473,159.505 143.5,160C 116.741,180.867 87.2409,185.367 55,173.5C 53.437,174.102 53.6037,174.935 55.5,176C 60.4064,176.795 64.7397,178.628 68.5,181.5C 61.4555,180.314 54.7888,177.981 48.5,174.5C 49.6085,173.71 50.9419,173.21 52.5,173C 42.9532,167.572 34.6199,160.738 27.5,152.5C 54.2855,174.425 84.6188,180.592 118.5,171C 140.223,160.443 156.89,144.609 168.5,123.5 Z"/></g>
<g><path style="opacity:0.998" fill="#14110e" d="M 149.5,159.5 C 127.077,179.69 100.743,187.523 70.5,183C 69.5842,182.722 68.9175,182.222 68.5,181.5C 64.7397,178.628 60.4064,176.795 55.5,176C 53.6037,174.935 53.437,174.102 55,173.5C 87.2409,185.367 116.741,180.867 143.5,160C 145.473,159.505 147.473,159.338 149.5,159.5 Z"/></g>
</svg>
